<?xml version="1.0" encoding="UTF-8"?>
<!-- Generator: Adobe Illustrator 24.2.3, SVG Export Plug-In . SVG Version: 6.00 Build 0)  -->
<svg xmlns="http://www.w3.org/2000/svg" xmlns:xlink="http://www.w3.org/1999/xlink" version="1.1" id="Capa_1" x="0px" y="0px" viewBox="0 0 512 512" style="enable-background:new 0 0 512 512;" xml:space="preserve" width="512" height="512">
<g>
	<g>
		<path style="fill:#33CCCC;" d="M235.867,435.442l-25.56-144.836l39.591,26.394c3.695,2.463,8.508,2.463,12.203,0l39.591-26.394    l-25.56,144.836h22.341l29.355-166.347c0.765-4.337-1.13-8.712-4.816-11.121c-3.688-2.408-8.454-2.387-12.118,0.057L256,294.626    l-54.895-36.596c-3.663-2.442-8.432-2.465-12.118-0.057c-3.687,2.409-5.581,6.784-4.816,11.121l29.356,166.347H235.867z"/>
	</g>
	<g>
		<path d="M501,490h-40.847v-19.498c0-22.882-18.616-41.498-41.498-41.498h-19.498V246.851c0-78.938-64.22-143.157-143.157-143.157    s-143.157,64.22-143.157,143.157v182.153H93.345c-22.882,0-41.498,18.616-41.498,41.498V490H11c-6.075,0-11,4.925-11,11    s4.925,11,11,11h490c6.075,0,11-4.925,11-11S507.075,490,501,490z M134.843,246.851c0-66.807,54.351-121.157,121.157-121.157    s121.157,54.351,121.157,121.157v182.153H134.843V246.851z M73.847,470.502c0-10.751,8.747-19.498,19.498-19.498h325.311    c10.751,0,19.498,8.747,19.498,19.498V490H73.847V470.502z"/>
		<g>
			<g>
				<path style="fill:#33CCCC;" d="M256,62.664c-6.075,0-11-4.925-11-11V11c0-6.075,4.925-11,11-11s11,4.925,11,11v40.664      C267,57.739,262.075,62.664,256,62.664z"/>
			</g>
		</g>
		<g>
			<path style="fill:#33CCCC;" d="M62.847,255.817H22.183c-6.075,0-11-4.925-11-11s4.925-11,11-11h40.664c6.075,0,11,4.925,11,11     S68.922,255.817,62.847,255.817z"/>
		</g>
		<g>
			<path style="fill:#33CCCC;" d="M83.254,157.723l-35.247-20.279c-5.266-3.03-7.079-9.754-4.049-15.02     c3.03-5.266,9.754-7.079,15.02-4.049l35.247,20.279c5.266,3.03,7.079,9.754,4.049,15.02S88.52,160.753,83.254,157.723z"/>
		</g>
		<g>
			<path style="fill:#33CCCC;" d="M428.746,157.723l35.247-20.279c5.266-3.03,7.079-9.754,4.049-15.02     c-3.03-5.266-9.754-7.079-15.02-4.049l-35.247,20.279c-5.266,3.03-7.079,9.754-4.049,15.02     C416.755,158.94,423.48,160.753,428.746,157.723z"/>
		</g>
		<g>
			<path style="fill:#33CCCC;" d="M489.817,255.817h-40.664c-6.075,0-11-4.925-11-11s4.925-11,11-11h40.664c6.075,0,11,4.925,11,11     S495.893,255.817,489.817,255.817z"/>
		</g>
		<g>
			<path style="fill:#33CCCC;" d="M362.101,83.043l20.336-35.214c3.038-5.261,1.236-11.989-4.024-15.027s-11.989-1.236-15.027,4.024     l-20.336,35.214c-3.038,5.261-1.236,11.989,4.024,15.027S359.062,88.304,362.101,83.043z"/>
		</g>
		<g>
			<path style="fill:#33CCCC;" d="M149.899,83.043L129.563,47.83c-3.038-5.261-1.236-11.989,4.024-15.027     c5.261-3.038,11.989-1.236,15.027,4.024l20.336,35.214c3.038,5.261,1.236,11.989-4.024,15.027     C159.665,90.106,152.938,88.304,149.899,83.043z"/>
		</g>
	</g>
</g>















</svg>
