<?xml version="1.0" encoding="UTF-8"?>
<!-- Generator: Adobe Illustrator 26.0.3, SVG Export Plug-In . SVG Version: 6.00 Build 0)  -->
<svg xmlns="http://www.w3.org/2000/svg" xmlns:xlink="http://www.w3.org/1999/xlink" version="1.1" id="Capa_1" x="0px" y="0px" viewBox="0 0 504 504" style="enable-background:new 0 0 504 504;" xml:space="preserve" width="512" height="512">
<g>
	<path style="fill:#79CACA;" d="M102.138,148.739C107.083,141.737,110,133.205,110,124c0-23.71-19.29-43-43-43s-43,19.29-43,43   c0,9.205,2.917,17.737,7.862,24.739C13.199,156.325,0,174.646,0,196v24c0,6.075,4.925,11,11,11h112c6.075,0,11-4.925,11-11v-24   C134,174.646,120.801,156.325,102.138,148.739z M67,103c11.58,0,21,9.421,21,21s-9.42,21-21,21s-21-9.421-21-21S55.42,103,67,103z    M112,209H22v-13c0-15.99,13.009-29,29-29h32c15.991,0,29,13.01,29,29V209z"/>
	<path style="fill:#79CACA;" d="M493,49H196c-6.075,0-11,4.925-11,11v35.443l-20.778,20.778c-4.295,4.296-4.295,11.261,0,15.557   L185,152.557V220c0,6.075,4.925,11,11,11h297c6.075,0,11-4.925,11-11V60C504,53.925,499.075,49,493,49z M482,209H207v-61   c0-2.917-1.159-5.715-3.222-7.778L187.557,124l16.222-16.222c2.063-2.063,3.222-4.861,3.222-7.778V71h275V209z"/>
</g>
<g>
	<path d="M102.138,372.739C107.083,365.737,110,357.205,110,348c0-23.71-19.29-43-43-43s-43,19.29-43,43   c0,9.205,2.917,17.737,7.862,24.739C13.199,380.325,0,398.646,0,420v24c0,6.075,4.925,11,11,11h112c6.075,0,11-4.925,11-11v-24   C134,398.646,120.801,380.325,102.138,372.739z M67,327c11.58,0,21,9.421,21,21s-9.42,21-21,21s-21-9.421-21-21S55.42,327,67,327z    M112,433H22v-13c0-15.99,13.009-29,29-29h32c15.991,0,29,13.01,29,29V433z"/>
	<path d="M260,127h168c6.075,0,11-4.925,11-11s-4.925-11-11-11H260c-6.075,0-11,4.925-11,11S253.925,127,260,127z"/>
	<path d="M260,175h168c6.075,0,11-4.925,11-11s-4.925-11-11-11H260c-6.075,0-11,4.925-11,11S253.925,175,260,175z"/>
	<path d="M493,273H196c-6.075,0-11,4.925-11,11v35.443l-20.778,20.778c-4.295,4.296-4.295,11.261,0,15.557L185,376.557V444   c0,6.075,4.925,11,11,11h297c6.075,0,11-4.925,11-11V284C504,277.925,499.075,273,493,273z M482,433H207v-61   c0-2.917-1.159-5.715-3.222-7.778L187.557,348l16.222-16.222c2.063-2.063,3.222-4.861,3.222-7.778v-29h275V433z"/>
	<path d="M260,351h168c6.075,0,11-4.925,11-11s-4.925-11-11-11H260c-6.075,0-11,4.925-11,11S253.925,351,260,351z"/>
	<path d="M260,399h168c6.075,0,11-4.925,11-11s-4.925-11-11-11H260c-6.075,0-11,4.925-11,11S253.925,399,260,399z"/>
</g>















</svg>
