<?xml version="1.0" encoding="UTF-8"?>
<!-- Generator: Adobe Illustrator 24.2.3, SVG Export Plug-In . SVG Version: 6.00 Build 0)  -->
<svg xmlns="http://www.w3.org/2000/svg" xmlns:xlink="http://www.w3.org/1999/xlink" version="1.1" id="Capa_1" x="0px" y="0px" viewBox="0 0 512.011 512.011" style="enable-background:new 0 0 512.011 512.011;" xml:space="preserve" width="512" height="512">
<g>
	<g>
		<path style="fill:#33CCCC;" d="M198.845,512.011c-2.917,0-5.715-1.159-7.778-3.222L3.234,320.956    c-4.292-4.292-4.296-11.249-0.01-15.547c0,0,9.477-9.501,20.097-20.13c18.887-18.818,48.804-20.075,69.15-3.785    c14.583-14.585,47.816-47.821,78.18-78.179c18.427-18.437,42.942-28.591,69.027-28.591    c86.287-0.363,130.179,105.751,69.029,166.646c-30.378,30.374-63.627,63.625-78.198,78.198    c16.501,19.714,14.831,51.259-3.811,69.111c-10.594,10.605-20.065,20.1-20.065,20.1    C204.57,510.848,201.767,512.011,198.845,512.011z M26.56,313.17l172.277,172.276c9.258-9.804,21.363-17.645,21.103-33.436    c0.002-7.995-3.144-15.516-8.84-21.156c-2.24-2.272-3.685-3.718-3.7-3.732c-4.295-4.296-4.295-11.26,0-15.556    c0,0,45.408-45.415,85.751-85.751c29.469-29.483,29.469-77.46-0.002-106.945c-14.274-14.281-33.264-22.146-53.47-22.146    s-39.196,7.864-53.47,22.146c-40.345,40.338-85.751,85.751-85.751,85.751c-4.295,4.297-11.259,4.298-15.556,0.002    c0,0-1.493-1.492-3.813-3.847c-11.59-11.547-30.562-11.546-42.222,0.07C34.342,305.374,30.024,309.699,26.56,313.17z"/>
	</g>
	<path d="M96.762,457.344c-37.548,0.075-56.238-46.26-29.394-72.228l28.682,28.656l-44.225-44.225   c-59.118,61.609,28.946,149.588,90.642,90.641l-15.557-15.556C119.038,452.706,108.26,457.344,96.762,457.344z"/>
	<path d="M443.518,0.011c-18.58,0-36.339,8.875-47.515,23.753c-39.321,53.065-79.978,107.958-127.566,155.246   c7.501,2.3,14.688,5.502,21.427,9.555c45.896-46.388,85.439-100.017,123.738-151.601c25.521-32.676,77.428-7.333,76.409,31.533   c0.001,11.685-5.592,22.862-14.945,29.885c-51.085,37.955-106.183,78.72-151.594,123.795l-0.028,0.047   c4.073,6.82,7.244,14.033,9.512,21.466c46.193-46.701,102.751-88.733,155.307-127.704C537.854,77.914,503.351-1.071,443.518,0.011z   "/>
</g>















</svg>
