<?xml version="1.0" encoding="UTF-8"?>
<!-- Generator: Adobe Illustrator 24.2.3, SVG Export Plug-In . SVG Version: 6.00 Build 0)  -->
<svg xmlns="http://www.w3.org/2000/svg" xmlns:xlink="http://www.w3.org/1999/xlink" version="1.1" id="Capa_1" x="0px" y="0px" viewBox="0 0 512 512" style="enable-background:new 0 0 512 512;" xml:space="preserve" width="512" height="512">
<g id="_x3C_Group_x3E__19_">
	<g id="Population_1_">
		<g>
			<path d="M256,297.498c35.976,0,65.245,29.269,65.245,65.244v18.777c7.783-4.062,15.147-8.82,22-14.203v-4.574     c0-48.106-39.138-87.244-87.245-87.244s-87.245,39.138-87.245,87.244v4.574c6.853,5.383,14.217,10.141,22,14.203v-18.777     C190.755,326.767,220.024,297.498,256,297.498z"/>
			<path d="M336.705,398.138c0.721-0.32,1.397-0.719,2.026-1.18C338.058,397.355,337.384,397.751,336.705,398.138z"/>
			<path d="M173.269,396.959c0.629,0.461,1.305,0.859,2.026,1.18C174.616,397.751,173.942,397.355,173.269,396.959z"/>
		</g>
		<g>
			<path d="M256,267c-31.291,0-56.747-25.457-56.747-56.747s25.457-56.747,56.747-56.747s56.747,25.457,56.747,56.747     S287.291,267,256,267z M256,175.506c-19.16,0-34.747,15.588-34.747,34.747S236.84,245,256,245s34.747-15.588,34.747-34.747     S275.16,175.506,256,175.506z"/>
		</g>
	</g>
	<g>
		<g>
			<path d="M148.492,132.936l-44.617-44.618c6.07-9.032,9.619-19.895,9.619-31.572C113.494,25.457,88.037,0,56.747,0     C25.457,0,0,25.457,0,56.747s25.457,56.747,56.747,56.747c11.677,0,22.539-3.548,31.572-9.619l44.617,44.618     C137.769,142.967,142.967,137.77,148.492,132.936z M56.747,91.494C37.587,91.494,22,75.906,22,56.747S37.587,22,56.747,22     c19.159,0,34.747,15.588,34.747,34.747S75.906,91.494,56.747,91.494z"/>
			<path d="M455.253,398.506c-11.677,0-22.539,3.548-31.572,9.619l-44.617-44.618c-4.833,5.526-10.031,10.723-15.557,15.557     l44.617,44.618c-6.07,9.032-9.619,19.895-9.619,31.572c0,31.29,25.457,56.747,56.747,56.747C486.543,512,512,486.543,512,455.253     S486.543,398.506,455.253,398.506z M455.253,490c-19.159,0-34.747-15.588-34.747-34.747s15.587-34.747,34.747-34.747     c19.16,0,34.747,15.588,34.747,34.747S474.413,490,455.253,490z"/>
			<path d="M132.936,363.507l-44.617,44.618c-9.032-6.071-19.895-9.619-31.572-9.619C25.457,398.506,0,423.963,0,455.253     S25.457,512,56.747,512c31.29,0,56.747-25.457,56.747-56.747c0-11.677-3.548-22.539-9.619-31.572l44.617-44.618     C142.967,374.23,137.769,369.033,132.936,363.507z M56.747,490C37.587,490,22,474.412,22,455.253s15.587-34.747,34.747-34.747     c19.159,0,34.747,15.588,34.747,34.747S75.906,490,56.747,490z"/>
			<path d="M379.064,148.493l44.617-44.618c9.032,6.071,19.895,9.619,31.572,9.619c31.291,0,56.747-25.457,56.747-56.747     S486.543,0,455.253,0c-31.29,0-56.747,25.457-56.747,56.747c0,11.677,3.548,22.539,9.619,31.572l-44.617,44.618     C369.033,137.77,374.231,142.967,379.064,148.493z M455.253,22C474.413,22,490,37.588,490,56.747s-15.587,34.747-34.747,34.747     c-19.159,0-34.747-15.588-34.747-34.747S436.094,22,455.253,22z"/>
		</g>
	</g>
	<g>
		<path style="fill:#33CCCC;" d="M256,419.489c-90.148,0-163.49-73.341-163.49-163.489S165.852,92.511,256,92.511    S419.49,165.852,419.49,256S346.148,419.489,256,419.489z M256,114.511c-78.018,0-141.49,63.472-141.49,141.489    S177.982,397.489,256,397.489S397.49,334.018,397.49,256S334.018,114.511,256,114.511z"/>
	</g>
</g>















</svg>
