<?xml version="1.0" encoding="UTF-8"?>
<!-- Generator: Adobe Illustrator 24.2.3, SVG Export Plug-In . SVG Version: 6.00 Build 0)  -->
<svg xmlns="http://www.w3.org/2000/svg" xmlns:xlink="http://www.w3.org/1999/xlink" version="1.1" id="Capa_1" x="0px" y="0px" viewBox="0 0 512.012 512.012" style="enable-background:new 0 0 512.012 512.012;" xml:space="preserve" width="512" height="512">
<g>
	<path style="fill:#33CCCC;" d="M448.502,388.992c-3.049,11.073-10.58,20.304-20.509,25.616v25.396   c0,10.751-8.747,19.498-19.498,19.498h-112.36c-4.699-17.868-21.344-30.961-40.627-30.498c-54.531,2.145-54.51,80.862,0,82.996   c19.282,0.462,35.927-12.629,40.627-30.498h112.36c22.882,0,41.498-18.616,41.498-41.498v-51.012H448.502z M275.504,471   c-0.829,25.3-38.171,25.294-38.996,0c-0.516-10.812,8.141-20.027,19-19.996C266.707,450.439,276.07,459.8,275.504,471z"/>
	<path d="M470.508,214.502h-20.515v-19.498C449.993,87.479,362.971,0,256.006,0S62.019,87.479,62.019,195.004v19.498H41.504   c-22.882,0-41.498,18.616-41.498,41.498v91.494c0,22.882,18.616,41.498,41.498,41.498H63.51   c4.834,17.558,20.933,30.497,40.007,30.497c22.882,0,41.497-18.615,41.497-41.497v-152.49c0-22.882-18.615-41.498-41.497-41.498   c-6.996,0-13.588,1.747-19.376,4.817C87.389,96.28,163.23,22,256.006,22c92.775,0,168.616,74.28,171.866,166.821   c-5.788-3.07-12.381-4.817-19.376-4.817c-22.882,0-41.497,18.616-41.497,41.498v152.49c0,22.882,18.615,41.497,41.497,41.497   c19.073,0,35.173-12.939,40.007-30.497h22.006c22.882,0,41.498-18.616,41.498-41.498V256   C512.006,233.118,493.39,214.502,470.508,214.502z M22.006,347.494V256c0-10.751,8.747-19.498,19.498-19.498h20.515v130.49H41.504   C30.753,366.992,22.006,358.245,22.006,347.494z M103.517,206.004c10.751,0,19.497,8.747,19.497,19.498v152.49   c0,10.751-8.746,19.497-19.497,19.497s-19.498-8.746-19.498-19.497v-152.49C84.019,214.751,92.766,206.004,103.517,206.004z    M408.495,397.489c-10.751,0-19.497-8.746-19.497-19.497v-152.49c0-10.751,8.746-19.498,19.497-19.498s19.498,8.747,19.498,19.498   v152.49C427.993,388.743,419.246,397.489,408.495,397.489z M490.006,347.494c0,10.751-8.747,19.498-19.498,19.498h-20.515v-130.49   h20.515c10.751,0,19.498,8.747,19.498,19.498V347.494z"/>
</g>















</svg>
